<?xml version="1.0" encoding="utf-8"?>
<!-- Generator: Adobe Illustrator 28.2.0, SVG Export Plug-In . SVG Version: 6.00 Build 0)  -->
<svg version="1.1" xmlns="http://www.w3.org/2000/svg" xmlns:xlink="http://www.w3.org/1999/xlink" x="0px" y="0px"
	 viewBox="0 0 512 512" style="enable-background:new 0 0 512 512;" xml:space="preserve">
<style type="text/css">
	.Arched_x0020_Green{fill:url(#SVGID_1_);stroke:#FFFFFF;stroke-width:0.25;stroke-miterlimit:1;}
	.st0{fill-rule:evenodd;clip-rule:evenodd;fill:url(#SVGID_00000049194601527193370390000006436130849138816938_);}
	.st1{fill-rule:evenodd;clip-rule:evenodd;fill:url(#SVGID_00000045607701723135832300000002031586419986918329_);}
	.st2{fill-rule:evenodd;clip-rule:evenodd;fill:url(#SVGID_00000168085286198340749780000000182465474017569441_);}
</style>
<linearGradient id="SVGID_1_" gradientUnits="userSpaceOnUse" x1="0" y1="512" x2="0.7071" y2="511.2929">
	<stop  offset="0" style="stop-color:#4E9B3F"/>
	<stop  offset="0.9831" style="stop-color:#23371F"/>
</linearGradient>
<g id="Layer_2">
</g>
<g id="Layer_1">
	
		<radialGradient id="SVGID_00000158734043048401865520000006662694100970695815_" cx="-19.0009" cy="-53.0007" r="942.6896" gradientUnits="userSpaceOnUse">
		<stop  offset="0" style="stop-color:#DBD839"/>
		<stop  offset="1" style="stop-color:#008840"/>
	</radialGradient>
	<path style="fill-rule:evenodd;clip-rule:evenodd;fill:url(#SVGID_00000158734043048401865520000006662694100970695815_);" d="
		M206.4,175.3c0,35.2,28.5,63.8,63.7,64c35.2,0.1,63.9-28.4,64-63.6c0.1-35.2-28.5-63.9-63.7-64
		C235.2,111.5,206.5,140.1,206.4,175.3 M218.3,175.3c0.1-28.7,23.5-51.9,52.1-51.8c28.6,0.1,51.9,23.4,51.8,52.1
		c-0.1,28.7-23.5,51.8-52.1,51.7C241.5,227.2,218.2,204,218.3,175.3"/>
	
		<radialGradient id="SVGID_00000097483353605511628580000008846732087448566688_" cx="-19.001" cy="-53.0007" r="942.6876" gradientUnits="userSpaceOnUse">
		<stop  offset="0" style="stop-color:#DBD839"/>
		<stop  offset="1" style="stop-color:#008840"/>
	</radialGradient>
	<path style="fill-rule:evenodd;clip-rule:evenodd;fill:url(#SVGID_00000097483353605511628580000008846732087448566688_);" d="
		M286.7,142.2c0,0-6,27.3-6.5,29.3c-2-0.1-22.2-0.2-22.2-0.2c-2,0-3.3-0.6-4.2-1.5c-0.7-1-0.9-2.3-0.9-3.6c0-1,0.2-2,0.3-2.6
		l4.9-22.4l-12.8-0.1l-4.8,21.9c-0.6,2-0.7,3.8-0.7,5.5c0,4.2,1.1,7.8,3.2,10.6c2.9,3.4,7.1,5.4,12.4,5.4c0,0,18.9,0.1,21.7,0.1
		c-0.6,2.9-6.7,30.6-6.7,30.6l12.7,0l16.4-74l-12.8-0.2L286.7,142.2"/>
	
		<radialGradient id="SVGID_00000166641727270330441720000017078369849083883688_" cx="-19.0001" cy="-52.9994" r="942.6866" gradientUnits="userSpaceOnUse">
		<stop  offset="0" style="stop-color:#DBD839"/>
		<stop  offset="1" style="stop-color:#008840"/>
	</radialGradient>
	<path style="fill-rule:evenodd;clip-rule:evenodd;fill:url(#SVGID_00000166641727270330441720000017078369849083883688_);" d="
		M316.3,339.9l87.3-76.3c41.2-37.1,54.7-70.6,60.5-122.4c7.4-67.3-46.2-115-119.5-115.7l0,0c-6.2-0.1-9.3,0-13.6,0l-189.8,0
		c-7.5,0-14.7,6-16,13.4L47.3,471.7c-1.3,7.4,3.7,13.4,11.2,13.5l46.9,0.1c7.5,0,14.7-6,16.1-13.4l67.2-364.8
		c1.4-7.4,8.6-13.4,16.1-13.4l130.1,0.1c27.8-0.4,57.9,15.9,51.3,58.1c-6.9,44-46.2,75.4-46.2,75.4c-5.9,4.7-15.3,12.5-21.1,17.3
		l-44,36.9c-62.7,56.6-86.9,93-97.3,125.4c-8.6,26.7-16.9,65.2-16.9,65.2c-1.6,7.3,3.3,13.3,10.8,13.4l220.5,0.6
		c7.5,0,14.8-6,16.2-13.4l16.4-87c1.4-7.4-3.6-13.4-11.1-13.3l-48.7,0.2c-7.5,0-15.1,6-16.8,13.3l-4.3,18
		c-1.8,7.3-9.3,13.3-16.8,13.3l-65.6,0.1C266.5,385.7,295.3,358.5,316.3,339.9z"/>
</g>
</svg>
